<?xml version="1.0" standalone="no"?>
<!DOCTYPE svg PUBLIC "-//W3C//DTD SVG 20010904//EN"
 "http://www.w3.org/TR/2001/REC-SVG-20010904/DTD/svg10.dtd">
<svg version="1.0" xmlns="http://www.w3.org/2000/svg"
 width="400.000000pt" height="400.000000pt" viewBox="0 0 400.000000 400.000000"
 preserveAspectRatio="xMidYMid meet">
<metadata>
Created by potrace 1.15, written by Peter Selinger 2001-2017
</metadata>
<g transform="translate(0.000000,400.000000) scale(0.100000,-0.100000)"
fill="#000000" stroke="none">
<path d="M163 3742 c-47 -14 -66 -41 -61 -86 8 -69 756 -2288 781 -2314 36
-38 87 -46 317 -46 228 0 271 6 307 47 12 13 171 470 398 1147 291 864 379
1137 379 1175 1 47 -1 51 -34 67 -29 15 -62 18 -190 17 -169 0 -213 -9 -241
-49 -9 -14 -146 -441 -304 -950 -158 -509 -290 -928 -293 -932 -4 -4 -140 414
-302 929 -162 515 -303 947 -313 959 -10 13 -35 28 -55 34 -40 11 -353 12
-389 2z"/>
<path d="M2846 2565 c-315 -65 -520 -244 -581 -509 -21 -90 -21 -262 0 -351
31 -137 113 -263 235 -362 61 -50 113 -77 518 -276 115 -56 201 -126 234 -191
29 -57 28 -153 -2 -223 -56 -131 -199 -193 -413 -180 -158 10 -289 52 -457
148 -106 60 -132 60 -158 1 -20 -47 -23 -259 -4 -314 37 -106 275 -209 549
-239 346 -37 684 75 863 287 62 74 126 201 146 293 21 93 24 274 5 351 -7 30
-31 93 -53 139 -33 69 -56 100 -122 165 -94 94 -187 151 -391 243 -299 135
-390 194 -436 285 -28 55 -28 154 1 214 49 100 137 139 310 138 103 0 125 -4
210 -33 52 -18 132 -52 177 -77 86 -46 132 -55 153 -29 22 26 35 185 23 276
-13 98 -29 118 -132 166 -133 63 -243 85 -436 89 -121 2 -190 -1 -239 -11z"/>
</g>
</svg>
