<?xml version="1.0" standalone="no"?><!DOCTYPE svg PUBLIC "-//W3C//DTD SVG 1.1//EN" "http://www.w3.org/Graphics/SVG/1.1/DTD/svg11.dtd"><svg class="icon" height="512" viewBox="0 0 1024 1024" version="1.1" xmlns="http://www.w3.org/2000/svg"><path d="M898.499681 480.604966 679.803797 480.604966 679.803797 124.154671c0-32.921807-26.784016-59.705823-59.706847-59.705823L403.774113 64.448848c-32.921807 0-59.706847 26.784016-59.706847 59.705823l0 141.430126-218.567971 0c-32.921807 0-59.705823 26.784016-59.705823 59.705823l0 573.161988c0 32.92283 26.784016 59.706847 59.705823 59.706847l249.396093 0c1.587148 0 3.145643-0.12075 4.6673-0.353041l259.338536 0c3.192715 1.125637 6.624884 1.743714 10.203386 1.743714l249.39507 0c32.92283 0 59.706847-26.784016 59.706847-59.705823L958.206528 540.310789C958.206528 507.388982 931.422512 480.604966 898.499681 480.604966zM618.405425 125.84722l0 414.46357 0 356.097254L405.594575 896.408043l0-571.117422c0-1.254573-0.052189-2.495844-0.127913-3.730974L405.466662 125.84722 618.405425 125.84722zM127.191844 326.983169l216.876446 0 0 569.777915L127.191844 896.761084 127.191844 326.983169zM896.808156 898.15278 679.803797 898.15278 679.803797 542.002314l217.004359 0L896.808156 898.15278z" /></svg>